Coordinates
version=1
nRows=12
nColumns=34
inDegrees=yes

Units are S.I. units (second, meters, Newtons, ...)
If the header above contains a line with 'inDegrees', this indicates whether rotational values are in degrees (yes) or radians (no).

endheader
time	pelvis_tilt	pelvis_list	pelvis_rotation	pelvis_tx	pelvis_ty	pelvis_tz	hip_flexion_r	hip_adduction_r	hip_rotation_r	knee_angle_r	ankle_angle_r	subtalar_angle_r	mtp_angle_r	hip_flexion_l	hip_adduction_l	hip_rotation_l	knee_angle_l	ankle_angle_l	subtalar_angle_l	mtp_angle_l	lumbar_extension	lumbar_bending	lumbar_rotation	arm_flex_r	arm_add_r	arm_rot_r	elbow_flex_r	pro_sup_r	arm_flex_l	arm_add_l	arm_rot_l	elbow_flex_l	pro_sup_l
      2.86666670	     -5.89881864	     -0.11771214	     -0.37147297	     -0.00226480	      1.18102449	     -0.10538248	     -0.35424332	      2.05895606	     -1.38615010	      0.00343872	      9.20311826	     -3.96229948	      0.00000000	      0.92595222	      1.64650412	     -1.24773488	      0.86404106	      6.04688981	     -4.69033842	      0.00000000	      1.05056593	     -1.47894492	     -0.54596002	     -3.23250208	     -7.24672812	     12.85518151	     27.33302513	     77.56180232	      0.67116185	    -10.20796350	     17.89217065	     24.25160516	     77.63935876
      2.88333330	     -5.94719758	     -0.11163768	     -0.34996596	     -0.00157663	      1.18200064	     -0.10615334	     -0.32877407	      2.03557174	     -1.48674560	      0.00000000	      9.27025977	     -4.08033727	      0.00000000	      0.94302423	      1.67992141	     -1.20543260	      0.73178815	      6.15741606	     -4.70982367	      0.00000000	      1.11773255	     -1.40123516	     -0.53220955	     -3.04979945	     -7.29027428	     12.82235379	     27.36682827	     77.56130147	      0.85161532	    -10.36810761	     17.83746292	     24.26552822	     77.64698481
      2.90000000	     -5.96487791	     -0.11329426	     -0.34936934	     -0.00168174	      1.18393016	     -0.10625665	     -0.33320684	      2.03611812	     -1.48707067	      0.00188351	      9.27056505	     -4.08120022	      0.00000000	      0.93901088	      1.68138613	     -1.20474480	      0.73327539	      6.15831613	     -4.70989160	      0.00000000	      1.11817177	     -1.40171782	     -0.53223953	     -3.04878836	     -7.29020730	     12.82214939	     27.36712993	     77.56131199	      0.85271564	    -10.36873784	     17.83711986	     24.26573156	     77.64708086
      2.91666670	     -5.99824000	     -0.12203777	     -0.18849104	     -0.00015267	      1.18461167	     -0.10737218	     -0.32476901	      2.02542354	     -1.46017360	      0.00203164	      9.25543184	     -4.08957854	      0.00000000	      0.91170172	      1.73322169	     -1.15610472	      0.70467464	      6.19747069	     -4.69095772	      0.00000000	      1.17654863	     -1.36619147	     -0.54011361	     -2.96291957	     -7.27409298	     12.81069496	     27.39333694	     77.56198980	      0.96444083	    -10.40437405	     17.81317320	     24.29146386	     77.65240228
      2.93333330	     -6.01932482	     -0.10446267	     -0.13366294	     -0.00078720	      1.18332818	     -0.10732167	     -0.30589454	      1.98541236	     -1.47863133	      0.00000000	      9.23669514	     -4.12549362	      0.00000000	      0.88679127	      1.78831179	     -1.03021941	      0.68028961	      6.24261503	     -4.62829950	      0.00000000	      1.26267327	     -1.31340214	     -0.61195711	     -2.89265176	     -7.23916499	     12.79650109	     27.42535912	     77.56342651	      1.16806159	    -10.43184230	     17.77846712	     24.35000038	     77.66196622
      2.95000000	     -6.03306854	     -0.12257141	     -0.08433808	      0.00029353	      1.18497336	     -0.10771083	     -0.25679567	      1.97946121	     -1.47079388	      0.00000000	      9.23535554	     -4.12414376	      0.00000000	      0.83824156	      1.80356289	     -1.02523528	      0.69771422	      6.24687627	     -4.62474971	      0.00000000	      1.26527663	     -1.31217606	     -0.60969067	     -2.88377213	     -7.23306105	     12.79551630	     27.42954522	     77.56366288	      1.17685723	    -10.43421003	     17.77566361	     24.35330890	     77.66298601
      2.96666670	     -6.12691899	     -0.09823441	      0.31651341	     -0.00057865	      1.18357088	     -0.10829060	     -0.13703986	      1.92261237	     -1.55954076	      0.00000000	      9.30958454	     -4.24277657	      0.00000000	      0.90960184	      1.86015817	     -0.57631851	      0.59293971	      6.39455474	     -4.34445284	      0.00000000	      1.35180551	     -1.33886213	     -0.71596637	     -2.84871467	     -7.13572435	     12.73741430	     27.51132318	     77.57156974	      1.47246685	    -10.43912613	     17.67905531	     24.51526021	     77.71651291
      2.98333330	     -6.11032489	     -0.09230181	      0.45348195	     -0.00100117	      1.18443419	     -0.10792426	     -0.11781436	      1.90741136	     -1.54130448	      0.00000000	      9.30706408	     -4.23182883	      0.00000000	      0.89865539	      1.87754236	     -0.60887286	      0.55421553	      6.41454344	     -4.35140198	      0.00000000	      1.43214687	     -1.30772032	     -0.72841546	     -2.78267021	     -7.09270800	     12.73361118	     27.54584996	     77.57308930	      1.57606191	    -10.43181257	     17.66548802	     24.56168641	     77.72285651
      3.00000000	     -6.12881710	     -0.08801281	      0.55399363	     -0.00003836	      1.18430131	     -0.10848154	     -0.13014007	      1.88546252	     -1.56089907	      0.00000000	      9.29241044	     -4.23351508	      0.00000000	      0.86889408	      1.88763799	     -0.63896279	      0.48176478	      6.42582729	     -4.34184581	      0.00000000	      1.55596340	     -1.26763066	     -0.78129433	     -2.69810130	     -7.01025781	     12.73439606	     27.59417743	     77.57582532	      1.79632575	    -10.40709799	     17.64509641	     24.65743858	     77.73123502
      3.01666670	     -6.15326686	     -0.08776283	      0.56260876	     -0.00053841	      1.18280466	     -0.10860848	     -0.11412894	      1.87788281	     -1.56791336	      0.00000000	      9.29130283	     -4.23653005	      0.00000000	      0.82377136	      1.87764924	     -0.64227229	      0.49758187	      6.42535584	     -4.34122881	      0.00000000	      1.56281671	     -1.26688684	     -0.78376484	     -2.69194919	     -7.00394276	     12.73465375	     27.59753194	     77.57606260	      1.81121413	    -10.40427208	     17.64380842	     24.66489185	     77.73190360
      3.03333330	     -6.14698303	     -0.09621042	      0.64623792	      0.00123740	      1.18220219	     -0.10939571	     -0.16095863	      1.88272355	     -1.72795490	      0.00000000	      9.26570437	     -4.30755793	      0.00000000	      0.71272189	      1.87772885	     -0.71531718	      0.40997257	      6.43854149	     -4.34237697	      0.00000000	      1.79226321	     -1.19743690	     -0.81146725	     -2.53241106	     -6.85264797	     12.74668310	     27.67993818	     77.58113426	      2.12099842	    -10.32588271	     17.62234424	     24.82677814	     77.74223171
      3.05000000	     -6.16019387	     -0.11590229	      0.75066995	      0.00085338	      1.18362191	     -0.10986232	     -0.19738966	      1.89464742	     -1.90659629	      0.00000000	      9.22994267	     -4.38212396	      0.00000000	      0.63449150	      1.88641264	     -0.75324216	      0.34375360	      6.43809819	     -4.31827119	      0.00000000	      1.88701995	     -1.14222424	     -0.77270778	     -2.44108433	     -6.74752371	     12.75782472	     27.72779090	     77.58668653	      2.27741051	    -10.24756785	     17.60794459	     24.96021904	     77.75554107
